<mxfile host="app.diagrams.net" modified="2022-09-23T20:26:43.094Z" agent="5.0 (Windows NT 10.0; Win64; x64) AppleWebKit/537.36 (KHTML, like Gecko) Chrome/105.0.0.0 Safari/537.36 Edg/105.0.1343.50" etag="VrE5_1HkDKmWd0Y8_rKH" version="20.3.6" type="github">
  <diagram id="C5RBs43oDa-KdzZeNtuy" name="Page-1">
    <mxGraphModel dx="781" dy="446" grid="1" gridSize="10" guides="1" tooltips="1" connect="1" arrows="1" fold="1" page="1" pageScale="1" pageWidth="827" pageHeight="1169" math="0" shadow="0">
      <root>
        <mxCell id="WIyWlLk6GJQsqaUBKTNV-0" />
        <mxCell id="WIyWlLk6GJQsqaUBKTNV-1" parent="WIyWlLk6GJQsqaUBKTNV-0" />
        <mxCell id="GjDUzmmRZ3CTvb0R5z6C-5" value="" style="edgeStyle=orthogonalEdgeStyle;rounded=0;orthogonalLoop=1;jettySize=auto;html=1;fontSize=14;" parent="WIyWlLk6GJQsqaUBKTNV-1" source="GjDUzmmRZ3CTvb0R5z6C-0" target="GjDUzmmRZ3CTvb0R5z6C-4" edge="1">
          <mxGeometry relative="1" as="geometry" />
        </mxCell>
        <mxCell id="GjDUzmmRZ3CTvb0R5z6C-0" value="&lt;font size=&quot;3&quot;&gt;Start&amp;nbsp;&lt;/font&gt;" style="ellipse;whiteSpace=wrap;html=1;fillColor=#d5e8d4;strokeColor=#82b366;" parent="WIyWlLk6GJQsqaUBKTNV-1" vertex="1">
          <mxGeometry x="290" y="10" width="115" height="120" as="geometry" />
        </mxCell>
        <mxCell id="GjDUzmmRZ3CTvb0R5z6C-7" value="" style="edgeStyle=orthogonalEdgeStyle;rounded=0;orthogonalLoop=1;jettySize=auto;html=1;fontSize=14;" parent="WIyWlLk6GJQsqaUBKTNV-1" source="GjDUzmmRZ3CTvb0R5z6C-4" target="GjDUzmmRZ3CTvb0R5z6C-6" edge="1">
          <mxGeometry relative="1" as="geometry" />
        </mxCell>
        <mxCell id="GjDUzmmRZ3CTvb0R5z6C-4" value="init: 1,2,3" style="shape=parallelogram;perimeter=parallelogramPerimeter;whiteSpace=wrap;html=1;fixedSize=1;fontSize=14;fillColor=#dae8fc;strokeColor=#6c8ebf;" parent="WIyWlLk6GJQsqaUBKTNV-1" vertex="1">
          <mxGeometry x="105" y="180" width="260" height="70" as="geometry" />
        </mxCell>
        <mxCell id="GjDUzmmRZ3CTvb0R5z6C-44" value="" style="edgeStyle=orthogonalEdgeStyle;rounded=0;sketch=0;fillStyle=solid;orthogonalLoop=1;jettySize=auto;html=1;shadow=0;strokeColor=#1A1A1A;fontSize=14;fillColor=#000000;gradientColor=default;" parent="WIyWlLk6GJQsqaUBKTNV-1" source="GjDUzmmRZ3CTvb0R5z6C-6" target="GjDUzmmRZ3CTvb0R5z6C-40" edge="1">
          <mxGeometry relative="1" as="geometry" />
        </mxCell>
        <mxCell id="GjDUzmmRZ3CTvb0R5z6C-6" value="Save Unsorted 1,2,3" style="whiteSpace=wrap;html=1;fontSize=14;fillColor=#ffff88;strokeColor=#36393d;" parent="WIyWlLk6GJQsqaUBKTNV-1" vertex="1">
          <mxGeometry x="440" y="290" width="240" height="85" as="geometry" />
        </mxCell>
        <mxCell id="GjDUzmmRZ3CTvb0R5z6C-21" value="" style="edgeStyle=orthogonalEdgeStyle;rounded=0;orthogonalLoop=1;jettySize=auto;html=1;fontSize=14;" parent="WIyWlLk6GJQsqaUBKTNV-1" source="GjDUzmmRZ3CTvb0R5z6C-17" target="GjDUzmmRZ3CTvb0R5z6C-20" edge="1">
          <mxGeometry relative="1" as="geometry" />
        </mxCell>
        <mxCell id="GjDUzmmRZ3CTvb0R5z6C-33" value="&lt;b&gt;False&lt;/b&gt;" style="edgeLabel;html=1;align=center;verticalAlign=middle;resizable=0;points=[];fontSize=14;" parent="GjDUzmmRZ3CTvb0R5z6C-21" vertex="1" connectable="0">
          <mxGeometry x="-0.1098" y="4" relative="1" as="geometry">
            <mxPoint as="offset" />
          </mxGeometry>
        </mxCell>
        <mxCell id="I0fAVbOIt5M41UMMYSqg-1" value="" style="edgeStyle=orthogonalEdgeStyle;rounded=0;orthogonalLoop=1;jettySize=auto;html=1;" edge="1" parent="WIyWlLk6GJQsqaUBKTNV-1" source="GjDUzmmRZ3CTvb0R5z6C-17" target="I0fAVbOIt5M41UMMYSqg-0">
          <mxGeometry relative="1" as="geometry" />
        </mxCell>
        <mxCell id="GjDUzmmRZ3CTvb0R5z6C-17" value="If unsorted is &amp;gt; 1" style="rhombus;whiteSpace=wrap;html=1;fontSize=14;fillColor=#ffe6cc;strokeColor=#d79b00;" parent="WIyWlLk6GJQsqaUBKTNV-1" vertex="1">
          <mxGeometry x="230" y="490" width="240" height="115" as="geometry" />
        </mxCell>
        <mxCell id="GjDUzmmRZ3CTvb0R5z6C-20" value="End&amp;nbsp;" style="ellipse;whiteSpace=wrap;html=1;fontSize=14;fillColor=#ffcccc;strokeColor=#36393d;" parent="WIyWlLk6GJQsqaUBKTNV-1" vertex="1">
          <mxGeometry x="620" y="425" width="140" height="145" as="geometry" />
        </mxCell>
        <mxCell id="GjDUzmmRZ3CTvb0R5z6C-45" value="" style="edgeStyle=orthogonalEdgeStyle;rounded=0;sketch=0;fillStyle=solid;orthogonalLoop=1;jettySize=auto;html=1;shadow=0;strokeColor=#1A1A1A;fontSize=14;fillColor=#000000;gradientColor=default;" parent="WIyWlLk6GJQsqaUBKTNV-1" source="GjDUzmmRZ3CTvb0R5z6C-40" target="GjDUzmmRZ3CTvb0R5z6C-17" edge="1">
          <mxGeometry relative="1" as="geometry" />
        </mxCell>
        <mxCell id="GjDUzmmRZ3CTvb0R5z6C-40" value="Loop&amp;nbsp;" style="whiteSpace=wrap;html=1;fontSize=14;fillColor=#ffff88;strokeColor=#36393d;" parent="WIyWlLk6GJQsqaUBKTNV-1" vertex="1">
          <mxGeometry x="90" y="360" width="240" height="80" as="geometry" />
        </mxCell>
        <mxCell id="I0fAVbOIt5M41UMMYSqg-3" value="" style="edgeStyle=orthogonalEdgeStyle;rounded=0;orthogonalLoop=1;jettySize=auto;html=1;" edge="1" parent="WIyWlLk6GJQsqaUBKTNV-1" source="I0fAVbOIt5M41UMMYSqg-0" target="I0fAVbOIt5M41UMMYSqg-2">
          <mxGeometry relative="1" as="geometry" />
        </mxCell>
        <mxCell id="I0fAVbOIt5M41UMMYSqg-9" value="" style="edgeStyle=orthogonalEdgeStyle;rounded=0;orthogonalLoop=1;jettySize=auto;html=1;" edge="1" parent="WIyWlLk6GJQsqaUBKTNV-1" source="I0fAVbOIt5M41UMMYSqg-0" target="I0fAVbOIt5M41UMMYSqg-8">
          <mxGeometry relative="1" as="geometry" />
        </mxCell>
        <mxCell id="I0fAVbOIt5M41UMMYSqg-0" value="" style="rhombus;whiteSpace=wrap;html=1;fontSize=14;fillColor=#ffe6cc;strokeColor=#d79b00;" vertex="1" parent="WIyWlLk6GJQsqaUBKTNV-1">
          <mxGeometry x="105" y="680" width="210" height="125" as="geometry" />
        </mxCell>
        <mxCell id="I0fAVbOIt5M41UMMYSqg-5" value="" style="edgeStyle=orthogonalEdgeStyle;rounded=0;orthogonalLoop=1;jettySize=auto;html=1;" edge="1" parent="WIyWlLk6GJQsqaUBKTNV-1" source="I0fAVbOIt5M41UMMYSqg-2" target="I0fAVbOIt5M41UMMYSqg-4">
          <mxGeometry relative="1" as="geometry" />
        </mxCell>
        <mxCell id="I0fAVbOIt5M41UMMYSqg-2" value="" style="whiteSpace=wrap;html=1;fontSize=14;fillColor=#f5f5f5;strokeColor=#666666;fontColor=#333333;" vertex="1" parent="WIyWlLk6GJQsqaUBKTNV-1">
          <mxGeometry x="470" y="660" width="160" height="100" as="geometry" />
        </mxCell>
        <mxCell id="I0fAVbOIt5M41UMMYSqg-4" value="" style="shape=parallelogram;perimeter=parallelogramPerimeter;whiteSpace=wrap;html=1;fixedSize=1;fontSize=14;fillColor=#dae8fc;strokeColor=#6c8ebf;" vertex="1" parent="WIyWlLk6GJQsqaUBKTNV-1">
          <mxGeometry x="560" y="880" width="165" height="90" as="geometry" />
        </mxCell>
        <mxCell id="I0fAVbOIt5M41UMMYSqg-8" value="" style="whiteSpace=wrap;html=1;fontSize=14;fillColor=#f5f5f5;strokeColor=#666666;fontColor=#333333;" vertex="1" parent="WIyWlLk6GJQsqaUBKTNV-1">
          <mxGeometry x="270" y="880" width="170" height="110" as="geometry" />
        </mxCell>
        <mxCell id="I0fAVbOIt5M41UMMYSqg-13" value="" style="endArrow=classic;html=1;rounded=0;exitX=0.022;exitY=0.679;exitDx=0;exitDy=0;exitPerimeter=0;" edge="1" parent="WIyWlLk6GJQsqaUBKTNV-1" source="I0fAVbOIt5M41UMMYSqg-8" target="I0fAVbOIt5M41UMMYSqg-0">
          <mxGeometry width="50" height="50" relative="1" as="geometry">
            <mxPoint x="100" y="900" as="sourcePoint" />
            <mxPoint x="110" y="870" as="targetPoint" />
            <Array as="points">
              <mxPoint x="30" y="940" />
            </Array>
          </mxGeometry>
        </mxCell>
      </root>
    </mxGraphModel>
  </diagram>
</mxfile>
